<?xml version="1.0" encoding="UTF-8" standalone="no"?>
<!-- Created with Inkscape (http://www.inkscape.org/) -->

<svg
   width="61.374763mm"
   height="20.538605mm"
   viewBox="0 0 61.374763 20.538605"
   version="1.1"
   id="svg1"
   xml:space="preserve"
   inkscape:version="1.4.3 (0d15f75, 2025-12-25)"
   sodipodi:docname="dibujo.svg"
   xmlns:inkscape="http://www.inkscape.org/namespaces/inkscape"
   xmlns:sodipodi="http://sodipodi.sourceforge.net/DTD/sodipodi-0.dtd"
   xmlns="http://www.w3.org/2000/svg"
   xmlns:svg="http://www.w3.org/2000/svg"><sodipodi:namedview
     id="namedview1"
     pagecolor="#ffffff"
     bordercolor="#000000"
     borderopacity="0.25"
     inkscape:showpageshadow="2"
     inkscape:pageopacity="0.0"
     inkscape:pagecheckerboard="0"
     inkscape:deskcolor="#d1d1d1"
     inkscape:document-units="mm"
     inkscape:zoom="2.8161072"
     inkscape:cx="382.08773"
     inkscape:cy="573.66424"
     inkscape:window-width="1855"
     inkscape:window-height="1174"
     inkscape:window-x="310"
     inkscape:window-y="30"
     inkscape:window-maximized="0"
     inkscape:current-layer="g10"><inkscape:page
       x="0"
       y="0"
       width="61.374763"
       height="20.538605"
       id="page2"
       margin="0"
       bleed="0" /></sodipodi:namedview><defs
     id="defs1" /><g
     inkscape:label="Capa 1"
     inkscape:groupmode="layer"
     id="layer1"
     transform="translate(-70.782898,-140.5711)"><g
       id="g10"
       transform="translate(-1.6223361,-25.011016)"><path
         style="fill:#000080;fill-rule:evenodd;stroke-width:0.264583"
         d="m 74.727073,173.01162 h 3.449587 l 0.199014,1.72479 -4.526037,0.0323 z"
         id="path37"
         sodipodi:nodetypes="ccccc"
         inkscape:export-filename="path37.png"
         inkscape:export-xdpi="96"
         inkscape:export-ydpi="96" /><path
         style="fill:#000080;fill-rule:evenodd;stroke-width:0.264583"
         d="m 79.604571,174.71992 1.063231,-1.55913 3.611975,-0.0828 -0.547562,1.70903 z"
         id="path38"
         sodipodi:nodetypes="ccccc" /><path
         style="fill:#000080;fill-rule:evenodd;stroke-width:0.264583"
         d="m 73.731999,175.26712 4.577336,-0.0663 0.199014,1.06141 0.862399,-1.12775 4.245647,0.0663 -1.459441,4.11297 -2.587191,-0.0663 1.194088,-3.25057 -2.98522,3.18423 -0.995074,0.0663 -0.464367,-2.91888 -1.194089,2.85254 -2.719869,-0.13267 z"
         id="path39" /><path
         style="fill:#000080;fill-rule:evenodd;stroke-width:0.264583"
         d="m 84.35734,174.7533 7.617671,-0.0169 c 0,0 -0.345542,-0.92951 -0.729718,-1.19409 -0.79654,-0.54857 -1.885498,-0.51564 -2.852544,-0.5307 -0.78705,-0.0123 -1.614397,0.0402 -2.333922,0.35943 -0.667961,0.29632 -1.701487,1.38229 -1.701487,1.38229 z"
         id="path40"
         sodipodi:nodetypes="ccsssc" /><path
         style="fill:#000080;fill-rule:evenodd;stroke-width:0.264583"
         d="m 84.12162,175.2087 c 2.536301,-0.10423 2.553673,-0.15635 2.553673,-0.15635 0,0 -0.359925,0.55355 -0.434297,0.8686 -0.07849,0.33251 -0.125635,0.70723 0,1.02494 0.0934,0.2362 0.28809,0.45494 0.521157,0.55591 0.430387,0.18646 0.948302,0.0974 1.407126,0 0.167367,-0.0355 0.331827,-0.10627 0.46904,-0.20847 0.342521,-0.25513 0.682687,-0.57338 0.833853,-0.97283 0.137334,-0.3629 0.01738,-1.16392 0.01738,-1.16392 l 2.449441,-0.0521 c 0,0 0.163594,0.97869 0.03475,1.44187 -0.182108,0.65465 -0.596492,1.25745 -1.09443,1.71982 -0.457535,0.42485 -1.045482,0.73107 -1.650333,0.88597 -1.284651,0.32899 -2.717935,0.44745 -3.978172,0.0347 -0.625143,-0.20475 -1.260704,-0.60663 -1.580846,-1.18129 -0.161251,-0.28945 -0.08791,-0.63842 -0.08686,-0.9902 0.0011,-0.35178 -0.01499,-0.75918 0.104233,-1.1118 0.08748,-0.25874 0.434285,-0.69485 0.434285,-0.69485 z"
         id="path41"
         sodipodi:nodetypes="ccssssssccssssszsc" /><path
         style="fill:#000080;fill-rule:evenodd;stroke-width:0.264583"
         d="m 93.530094,172.97381 2.499453,0.0462 -0.774861,1.93522 -2.281629,-0.11714 z"
         id="path42"
         sodipodi:nodetypes="ccccc" /><path
         style="fill:#000080;fill-rule:evenodd;stroke-width:0.264583"
         d="m 95.86943,174.91411 2.260964,-1.81595 2.784136,0.0627 -2.050331,1.76978 z"
         id="path43"
         sodipodi:nodetypes="ccccc" /><path
         style="fill:#000080;fill-rule:evenodd;stroke-width:0.264583"
         d="m 92.79423,175.16597 2.414162,0.0894 0.08941,0.6259 0.447069,-0.6557 2.980446,-0.11922 -0.953743,1.01335 -0.05961,0.35766 1.93729,2.62279 -2.622794,0.14902 -2.235335,-2.50357 -0.834525,2.53338 -2.533382,-0.0596 z"
         id="path44" /><path
         style="fill:#000080;fill-rule:evenodd;stroke-width:0.264583"
         d="m 99.887696,179.07036 2.861224,-3.9342 2.59299,-0.0298 -1.57963,2.32475 2.14592,0.0894 -0.92394,1.66905 z"
         id="path45" /><path
         style="fill:#000080;fill-rule:evenodd;stroke-width:0.264583"
         d="m 103.40462,174.59968 4.23224,0.0298 -0.6259,-1.49023 -2.32474,-0.0298 z"
         id="path46" /><path
         style="fill:#000080;fill-rule:evenodd;stroke-width:0.264583"
         d="m 105.47101,175.10284 0.71014,4.03113 2.27665,-0.0418 -0.79369,-3.96847 z"
         id="path47" /><path
         style="fill:#000080;fill-rule:evenodd;stroke-width:0.264583"
         d="m 110.35849,175.1655 2.38109,0.0209 -0.21988,0.7772 -0.53204,1.58299 c 0,0 0.64137,-0.0215 0.9399,-0.12532 0.64282,-0.22358 1.29632,-0.54105 1.75448,-1.04433 0.30608,-0.33623 0.58483,-1.23232 0.58483,-1.23232 l 2.5064,-0.0209 -0.66837,1.54561 c 0,0 -1.43095,1.5945 -2.33931,2.13045 -0.33563,0.19803 -1.107,0.37596 -1.107,0.37596 h -4.74128 z"
         id="path48"
         sodipodi:nodetypes="ccccsscccsccc" /><path
         style="fill:#000080;fill-rule:evenodd;stroke-width:0.264583"
         d="m 110.60914,174.62245 h 7.373 l -0.68926,-1.27409 -0.37596,-0.33419 h -5.74384 l -0.3133,0.68926 z"
         id="path49" /><path
         style="fill:#000080;fill-rule:evenodd;stroke-width:0.264583"
         d="m 119.63219,174.55978 c 0,-0.12532 0.64656,-1.22653 1.23232,-1.50384 0.73624,-0.34855 1.69453,-0.31972 2.44374,0 0.21286,0.0908 0.38428,0.29075 0.48039,0.50129 0.15679,0.34348 0.10444,1.12788 0.10444,1.12788 z"
         id="path50"
         sodipodi:nodetypes="cssscc" /><path
         style="fill:#000080;fill-rule:evenodd;stroke-width:0.264583"
         d="m 118.96382,175.14461 h 2.44374 l 0.0209,0.50128 -1.44119,1.77537 2.10956,0.0627 -0.77281,1.65005 -5.28433,-0.0209 z"
         id="path51" /><path
         style="fill:#000080;fill-rule:evenodd;stroke-width:0.264583"
         d="m 122.57721,175.18639 -0.79369,-0.0627 0.68926,4.03113 2.21399,-0.0836 -0.79369,-3.90581 z"
         id="path52" /><path
         style="fill:#d40000;fill-rule:evenodd;stroke-width:0.264583"
         d="m 114.44602,171.82648 -0.62134,-0.94182 1.34331,-1.32564 0.97214,0.40653 0.90144,-0.91911 -0.22978,-1.06051 1.74985,-0.79539 0.54793,0.76004 1.09586,-0.40653 0.38886,-1.37867 2.068,-0.42421 0.0884,1.18424 1.07818,-0.0177 0.79539,-1.29029 2.12103,-0.0353 -0.30048,1.52007 1.02516,0.1414 1.32564,-1.06051 1.73218,0.86608 -1.09587,1.34332 0.88376,0.77771 1.5731,-0.70701 1.27262,1.66147 -1.7145,1.14889 0.15907,0.97214 2.12103,-0.0707 0.053,2.47453 -2.17406,0.30048 -0.17675,1.23726 1.69682,0.45956 -1.11353,2.63361 -2.26244,-0.40653 -0.72468,1.25494 1.21959,1.25494 -1.97962,1.87357 -1.83823,-1.16656 -1.02516,0.86608 0.37118,1.67915 -2.38616,0.97214 -1.06051,-1.44937 -1.23727,0.42421 -0.24745,1.41401 -2.3508,0.12373 -0.0884,-1.69682 -1.23727,0.10605 -0.68933,1.18424 -2.068,-0.86609 0.54793,-1.46704 -0.91911,-0.47723 -0.83074,0.86609 -1.23726,-1.2903 1.23726,-1.32564 c 0,0 0.76785,0.79894 1.21959,1.11354 0.66385,0.46232 1.37637,0.89903 2.15638,1.11354 0.75692,0.20816 1.56649,0.1745 2.35081,0.1414 0.98149,-0.0414 1.9901,-0.0971 2.91641,-0.4242 1.12333,-0.39668 2.13296,-1.09194 3.07549,-1.82055 0.88665,-0.68541 1.71142,-1.47368 2.38615,-2.36848 0.68426,-0.90744 1.31472,-1.89929 1.6438,-2.98711 0.32359,-1.06965 0.4753,-2.2398 0.2828,-3.34062 -0.0827,-0.47263 -0.35742,-0.89456 -0.60095,-1.30797 -0.37861,-0.6427 -0.75985,-1.31678 -1.32565,-1.80287 -0.73161,-0.62855 -1.62633,-1.11275 -2.5629,-1.34332 -1.14419,-0.28168 -2.36742,-0.15858 -3.53505,0 -0.96315,0.13081 -1.91994,0.38793 -2.81036,0.77771 -0.68596,0.30028 -1.30361,0.74344 -1.90892,1.18424 -0.72355,0.52691 -2.04759,1.73718 -2.04759,1.73718 z"
         id="path53"
         sodipodi:nodetypes="ccccccccccccccccccccccccccccccccccccccccccccccccccccssssssssssssssc" /><path
         style="fill:#ffdd55;fill-rule:evenodd;stroke-width:0.264583"
         d="m 114.49753,171.80199 2.02218,-1.65558 c 0,0 1.24605,-0.87831 1.9394,-1.18256 0.86372,-0.379 1.78564,-0.65068 2.71988,-0.78049 1.17131,-0.16275 2.40265,-0.28379 3.54768,0.0118 0.93606,0.24165 1.83746,0.73396 2.5425,1.39542 0.85811,0.80508 1.61615,1.8362 1.89209,2.98004 0.26087,1.08137 0.0103,2.25693 -0.30747,3.32299 -0.32717,1.09774 -1.60828,3.03679 -1.60828,3.03679 0,0 -1.4648,1.58423 -2.32964,2.26107 -0.93165,0.72913 -1.92443,1.43682 -3.03917,1.83297 -0.93027,0.3306 -1.94648,0.36924 -2.93274,0.4139 -0.79248,0.0359 -1.61096,0.0881 -2.37695,-0.11826 -0.78817,-0.21234 -1.50652,-0.6563 -2.17591,-1.12343 -0.42098,-0.29378 -1.13525,-1.04065 -1.13525,-1.04065 0,0 1.02117,0.74052 1.58463,1.017 0.55964,0.27461 1.14799,0.51912 1.76201,0.62675 0.72995,0.12795 1.48579,0.0854 2.22321,0.0118 0.90927,-0.0907 1.83574,-0.21705 2.68441,-0.5558 1.09008,-0.43511 2.11414,-1.0774 2.99187,-1.85662 0.78862,-0.70011 1.44532,-1.5596 1.97487,-2.47155 0.44513,-0.76657 0.77948,-1.60844 0.98152,-2.47154 0.17579,-0.75095 0.28544,-1.54077 0.18921,-2.30599 -0.0754,-0.59987 -0.29169,-1.18955 -0.59127,-1.71471 -0.27435,-0.48094 -0.67827,-0.88027 -1.07613,-1.26534 -0.33663,-0.32582 -0.67969,-0.66772 -1.09978,-0.87509 -0.43721,-0.21583 -0.93766,-0.27746 -1.41907,-0.35477 -0.63611,-0.10216 -1.28417,-0.17515 -1.92757,-0.14191 -0.89575,0.0463 -1.79347,0.2034 -2.64893,0.47303 -0.67955,0.21419 -1.31791,0.5503 -1.9394,0.89874 -0.85541,0.47959 -2.4479,1.63199 -2.4479,1.63199 z"
         id="path54"
         sodipodi:nodetypes="ccsssssscssssscsssssssssssssssc" /></g></g></svg>
